<?xml version="1.0" encoding="utf-8" standalone="no"?>
<!DOCTYPE svg PUBLIC "-//W3C//DTD SVG 1.1//EN" "http://www.w3.org/Graphics/SVG/1.1/DTD/svg11.dtd">

<svg width="3840px" height="2160px" viewBox="0 0 3840 2160" xmlns="http://www.w3.org/2000/svg" xmlns:xlink="http://www.w3.org/1999/xlink" version="1.1" style="stroke:black; fill:none; stroke-width:0.5pt; stroke-linejoin:round; text-anchor:middle" font-family="Helvetica, Arial, FreeSans, Sans, sans, sans-serif">

<g>

<rect x="545.0" y="80.0" width="250.0" height="250.0" fill="black" stroke="none" />

<rect x="545.0" y="580.0" width="250.0" height="250.0" fill="black" stroke="none" />

<rect x="545.0" y="1080.0" width="250.0" height="250.0" fill="black" stroke="none" />

<rect x="545.0" y="1580.0" width="250.0" height="250.0" fill="black" stroke="none" />

<rect x="795.0" y="330.0" width="250.0" height="250.0" fill="black" stroke="none" />

<rect x="795.0" y="830.0" width="250.0" height="250.0" fill="black" stroke="none" />

<rect x="795.0" y="1330.0" width="250.0" height="250.0" fill="black" stroke="none" />

<rect x="795.0" y="1830.0" width="250.0" height="250.0" fill="black" stroke="none" />

<rect x="1045.0" y="80.0" width="250.0" height="250.0" fill="black" stroke="none" />

<rect x="1045.0" y="580.0" width="250.0" height="250.0" fill="black" stroke="none" />

<rect x="1045.0" y="1080.0" width="250.0" height="250.0" fill="black" stroke="none" />

<rect x="1045.0" y="1580.0" width="250.0" height="250.0" fill="black" stroke="none" />

<rect x="1295.0" y="330.0" width="250.0" height="250.0" fill="black" stroke="none" />

<rect x="1295.0" y="830.0" width="250.0" height="250.0" fill="black" stroke="none" />

<rect x="1295.0" y="1330.0" width="250.0" height="250.0" fill="black" stroke="none" />

<rect x="1295.0" y="1830.0" width="250.0" height="250.0" fill="black" stroke="none" />

<rect x="1545.0" y="80.0" width="250.0" height="250.0" fill="black" stroke="none" />

<rect x="1545.0" y="580.0" width="250.0" height="250.0" fill="black" stroke="none" />

<rect x="1545.0" y="1080.0" width="250.0" height="250.0" fill="black" stroke="none" />

<rect x="1545.0" y="1580.0" width="250.0" height="250.0" fill="black" stroke="none" />

<rect x="1795.0" y="330.0" width="250.0" height="250.0" fill="black" stroke="none" />

<rect x="1795.0" y="830.0" width="250.0" height="250.0" fill="black" stroke="none" />

<rect x="1795.0" y="1330.0" width="250.0" height="250.0" fill="black" stroke="none" />

<rect x="1795.0" y="1830.0" width="250.0" height="250.0" fill="black" stroke="none" />

<rect x="2045.0" y="80.0" width="250.0" height="250.0" fill="black" stroke="none" />

<rect x="2045.0" y="580.0" width="250.0" height="250.0" fill="black" stroke="none" />

<rect x="2045.0" y="1080.0" width="250.0" height="250.0" fill="black" stroke="none" />

<rect x="2045.0" y="1580.0" width="250.0" height="250.0" fill="black" stroke="none" />

<rect x="2295.0" y="330.0" width="250.0" height="250.0" fill="black" stroke="none" />

<rect x="2295.0" y="830.0" width="250.0" height="250.0" fill="black" stroke="none" />

<rect x="2295.0" y="1330.0" width="250.0" height="250.0" fill="black" stroke="none" />

<rect x="2295.0" y="1830.0" width="250.0" height="250.0" fill="black" stroke="none" />

<rect x="2545.0" y="80.0" width="250.0" height="250.0" fill="black" stroke="none" />

<rect x="2545.0" y="580.0" width="250.0" height="250.0" fill="black" stroke="none" />

<rect x="2545.0" y="1080.0" width="250.0" height="250.0" fill="black" stroke="none" />

<rect x="2545.0" y="1580.0" width="250.0" height="250.0" fill="black" stroke="none" />

<rect x="2795.0" y="330.0" width="250.0" height="250.0" fill="black" stroke="none" />

<rect x="2795.0" y="830.0" width="250.0" height="250.0" fill="black" stroke="none" />

<rect x="2795.0" y="1330.0" width="250.0" height="250.0" fill="black" stroke="none" />

<rect x="2795.0" y="1830.0" width="250.0" height="250.0" fill="black" stroke="none" />

<rect x="3045.0" y="80.0" width="250.0" height="250.0" fill="black" stroke="none" />

<rect x="3045.0" y="580.0" width="250.0" height="250.0" fill="black" stroke="none" />

<rect x="3045.0" y="1080.0" width="250.0" height="250.0" fill="black" stroke="none" />

<rect x="3045.0" y="1580.0" width="250.0" height="250.0" fill="black" stroke="none" />

</g>

</svg>

